<svg xmlns="http://www.w3.org/2000/svg" width="19.589" height="23.987" viewBox="0 0 19.589 23.987">
  <g id="custom-bullet" fill="#135d6d">
    <path d="M 9.671238899230957 20.95724868774414 L 9.093023300170898 17.08784294128418 L 9.62022876739502 16.87332916259766 L 10.37071895599365 17.1787052154541 L 9.671238899230957 20.95724868774414 Z M 1.907242059707642 18.93206596374512 L 7.465033531188965 12.96030044555664 L 7.98777961730957 16.45794677734375 L 1.907242059707642 18.93206596374512 Z M 17.33305168151855 18.9319953918457 L 11.50233364105225 16.55953788757324 L 12.10330009460449 13.3131160736084 L 17.33305168151855 18.9319953918457 Z M 11.98087978363037 11.08594036102295 L 11.40043354034424 7.613936424255371 L 17.65898895263672 5.194387435913086 L 11.98087978363037 11.08594036102295 Z M 7.339864730834961 10.60408306121826 L 2.235328674316406 4.923564910888672 L 7.885860919952393 7.339173316955566 L 7.339864730834961 10.60408306121826 Z M 9.911273002624512 7.117471694946289 L 9.001840591430664 6.728706359863281 L 9.620213508605957 3.031290292739868 L 10.27972412109375 6.975051879882812 L 9.911273002624512 7.117471694946289 Z" stroke="none"/>
    <path d="M 3.815170288085938 17.61593818664551 L 7.435153484344482 16.14299774169922 L 7.123941898345947 14.06070995330811 L 3.815170288085938 17.61593818664551 M 15.42493438720703 17.61579513549805 L 12.41411399841309 14.38094902038574 L 12.06813144683838 16.24994659423828 L 15.42493438720703 17.61579513549805 M 12.31022644042969 10.02369022369385 L 15.72872924804688 6.476682662963867 L 11.960768699646 7.933371543884277 L 12.31022644042969 10.02369022369385 M 7.017933368682861 9.497771263122559 L 7.327874183654785 7.6444091796875 L 4.120285987854004 6.273161888122559 L 7.017933368682861 9.497771263122559 M 9.618896484375 23.98686218261719 L 9.618406295776367 23.98685264587402 L 8.540406227111816 16.77289199829102 L 9.620236396789551 16.33352279663086 L 10.93652629852295 16.86912155151367 L 11.79247665405273 12.24528217315674 L 19.24047660827637 20.24746131896973 L 19.24023628234863 20.24781227111816 L 10.93652629852295 16.86912155151367 L 9.618896484375 23.98686218261719 Z M 0.0002466992300469428 20.24781227111816 L -3.30078114529897e-06 20.24746131896973 L 7.599856853485107 12.08152198791504 L 7.661866664886475 11.71066188812256 L 7.808106899261475 11.87314224243164 L 8.540406227111816 16.77289199829102 L 0.0002466992300469428 20.24781227111816 Z M 11.79247665405273 12.24506187438965 L 11.792236328125 12.24475193023682 L 11.64037704467773 12.08152198791504 L 10.84008693695068 7.294502258300781 L 19.58923721313477 3.912091970443726 L 11.8482666015625 11.94405174255371 L 11.79247665405273 12.24506187438965 Z M 7.661866664886475 11.71041202545166 L 7.661496639251709 11.71008205413818 L 0.3503466844558716 3.573961973190308 L 8.443846702575684 7.033942222595215 L 7.661866664886475 11.71041202545166 Z M 9.901856422424316 7.657202243804932 L 9.901736259460449 7.657162189483643 L 8.443846702575684 7.033942222595215 L 9.620236396789551 2.044982920779148e-06 L 10.84008693695068 7.294502258300781 L 9.901856422424316 7.657202243804932 Z" stroke="none" fill="#707070"/>
  </g>
</svg>
