<svg xmlns="http://www.w3.org/2000/svg" width="30" height="30.001" viewBox="0 0 30 30.001">
  <path id="icon-linkedin" d="M-2692,16h-24a3,3,0,0,1-3-3V-11a3,3,0,0,1,3-3h24a3,3,0,0,1,3,3V13A3,3,0,0,1-2692,16ZM-2699.334.967c1.542,0,2.325,1.095,2.325,3.254V12h4.306V3.428A6.833,6.833,0,0,0-2693.865-.9a4.228,4.228,0,0,0-3.486-1.442,4.97,4.97,0,0,0-4.5,2.557h-.055V-2h-4.32V12h4.32V4.016a3.294,3.294,0,0,1,.725-2.188A2.317,2.317,0,0,1-2699.334.967ZM-2714.181-2V12h4.32V-2Zm2.187-6.658a2.623,2.623,0,0,0-1.791.615,2.029,2.029,0,0,0-.7,1.587,2.1,2.1,0,0,0,.7,1.592,2.536,2.536,0,0,0,1.791.65,2.576,2.576,0,0,0,1.8-.629,2.094,2.094,0,0,0,.69-1.613,2.038,2.038,0,0,0-.69-1.587A2.615,2.615,0,0,0-2711.994-8.658Z" transform="translate(2719 14)" fill="#fff"/>
</svg>
